<?xml version="1.0" encoding="UTF-8"?>
<svg xmlns="http://www.w3.org/2000/svg" xmlns:xlink="http://www.w3.org/1999/xlink" width="188pt" height="40pt" viewBox="0 0 188 40" version="1.1">
<g id="surface1">
<path style=" stroke:none;fill-rule:nonzero;fill:rgb(0%,0%,0%);fill-opacity:1;" d="M 186.949219 26.746094 C 186.367188 26.746094 185.894531 27.222656 185.894531 27.804688 C 185.894531 28.386719 186.367188 28.863281 186.949219 28.863281 C 187.53125 28.863281 188.007812 28.386719 188.007812 27.804688 C 188.007812 27.222656 187.53125 26.746094 186.949219 26.746094 Z M 186.949219 28.695312 C 186.457031 28.695312 186.058594 28.292969 186.058594 27.804688 C 186.058594 27.3125 186.460938 26.914062 186.949219 26.914062 C 187.441406 26.914062 187.839844 27.316406 187.839844 27.804688 C 187.839844 28.292969 187.441406 28.695312 186.949219 28.695312 Z M 187.292969 27.625 C 187.292969 27.429688 187.15625 27.316406 186.957031 27.316406 L 186.617188 27.316406 L 186.617188 28.28125 L 186.785156 28.28125 L 186.785156 27.933594 L 186.964844 27.933594 L 187.140625 28.28125 L 187.316406 28.28125 L 187.125 27.898438 C 187.230469 27.847656 187.292969 27.753906 187.292969 27.625 Z M 186.949219 27.78125 L 186.785156 27.78125 L 186.785156 27.460938 L 186.949219 27.460938 C 187.0625 27.460938 187.128906 27.519531 187.128906 27.621094 C 187.128906 27.726562 187.058594 27.78125 186.949219 27.78125 Z M 59.613281 16.042969 L 59.613281 13.484375 L 55.695312 13.484375 L 55.695312 28.703125 L 59.613281 28.703125 L 59.613281 19.578125 C 59.613281 17.925781 60.671875 17.113281 62.324219 17.113281 L 64.46875 17.113281 L 64.46875 13.484375 L 62.636719 13.484375 C 61.199219 13.484375 59.953125 14.234375 59.613281 16.042969 Z M 68.136719 7.464844 C 66.796875 7.464844 65.769531 8.523438 65.769531 9.867188 C 65.769531 11.175781 66.796875 12.238281 68.136719 12.238281 C 69.480469 12.238281 70.507812 11.175781 70.507812 9.867188 C 70.507812 8.523438 69.480469 7.464844 68.136719 7.464844 Z M 66.183594 28.703125 L 70.09375 28.703125 L 70.09375 13.484375 L 66.183594 13.484375 Z M 88.71875 21.09375 C 88.71875 25.4375 85.199219 28.960938 80.859375 28.960938 C 79.105469 28.960938 77.519531 28.386719 76.242188 27.414062 L 76.242188 33.171875 L 72.335938 33.171875 L 72.335938 13.484375 L 76.242188 13.484375 L 76.242188 14.773438 C 77.519531 13.800781 79.105469 13.226562 80.859375 13.226562 C 85.199219 13.226562 88.71875 16.75 88.71875 21.09375 Z M 84.785156 21.09375 C 84.785156 18.734375 82.871094 16.820312 80.515625 16.820312 C 78.15625 16.820312 76.242188 18.734375 76.242188 21.09375 C 76.242188 23.453125 78.15625 25.367188 80.515625 25.367188 C 82.871094 25.367188 84.785156 23.457031 84.785156 21.09375 Z M 156.675781 19.757812 L 154.394531 19.132812 C 152.894531 18.742188 152.308594 18.28125 152.308594 17.488281 C 152.308594 16.714844 153.132812 16.171875 154.308594 16.171875 C 155.425781 16.171875 156.304688 16.90625 156.304688 17.84375 L 156.304688 17.933594 L 159.910156 17.933594 L 159.910156 17.84375 C 159.910156 15.082031 157.660156 13.226562 154.308594 13.226562 C 150.988281 13.226562 148.578125 15.082031 148.578125 17.636719 C 148.578125 19.625 149.894531 21.121094 152.191406 21.746094 L 154.375 22.339844 C 156.035156 22.800781 156.652344 23.3125 156.652344 24.226562 C 156.652344 25.191406 155.761719 25.839844 154.433594 25.839844 C 153.050781 25.839844 152.121094 24.960938 152.121094 23.660156 L 152.121094 23.574219 L 148.292969 23.574219 L 148.292969 23.660156 C 148.292969 26.78125 150.804688 28.964844 154.402344 28.964844 C 157.867188 28.964844 160.382812 26.835938 160.382812 23.898438 C 160.382812 22.460938 159.742188 20.578125 156.675781 19.757812 Z M 102.589844 13.484375 L 106.5 13.484375 L 106.5 28.703125 L 102.589844 28.703125 L 102.589844 27.414062 C 101.316406 28.386719 99.726562 28.960938 97.972656 28.960938 C 93.632812 28.960938 90.113281 25.4375 90.113281 21.09375 C 90.113281 16.75 93.632812 13.226562 97.972656 13.226562 C 99.726562 13.226562 101.316406 13.800781 102.589844 14.773438 Z M 102.589844 21.09375 C 102.589844 18.734375 100.675781 16.820312 98.320312 16.820312 C 95.960938 16.820312 94.050781 18.734375 94.050781 21.09375 C 94.050781 23.453125 95.960938 25.367188 98.320312 25.367188 C 100.679688 25.367188 102.589844 23.457031 102.589844 21.09375 Z M 120.617188 8.066406 L 124.527344 8.066406 L 124.527344 28.707031 L 120.617188 28.707031 L 120.617188 27.417969 C 119.34375 28.386719 117.753906 28.964844 116.003906 28.964844 C 111.660156 28.964844 108.144531 25.441406 108.144531 21.097656 C 108.144531 16.75 111.660156 13.230469 116.003906 13.230469 C 117.753906 13.230469 119.34375 13.804688 120.617188 14.773438 Z M 120.617188 21.09375 C 120.617188 18.734375 118.703125 16.820312 116.347656 16.820312 C 113.988281 16.820312 112.078125 18.734375 112.078125 21.09375 C 112.078125 23.453125 113.988281 25.367188 116.347656 25.367188 C 118.703125 25.367188 120.617188 23.457031 120.617188 21.09375 Z M 142.679688 28.703125 L 146.589844 28.703125 L 146.589844 13.484375 L 142.679688 13.484375 Z M 144.636719 7.464844 C 143.292969 7.464844 142.265625 8.523438 142.265625 9.867188 C 142.265625 11.175781 143.292969 12.238281 144.636719 12.238281 C 145.976562 12.238281 147.003906 11.175781 147.003906 9.867188 C 147.003906 8.523438 145.976562 7.464844 144.636719 7.464844 Z M 177.285156 21.09375 C 177.285156 25.4375 173.765625 28.960938 169.421875 28.960938 C 165.082031 28.960938 161.5625 25.4375 161.5625 21.09375 C 161.5625 16.75 165.082031 13.226562 169.421875 13.226562 C 173.765625 13.226562 177.285156 16.75 177.285156 21.09375 Z M 173.695312 21.09375 C 173.695312 18.734375 171.78125 16.820312 169.425781 16.820312 C 167.066406 16.820312 165.152344 18.734375 165.152344 21.09375 C 165.152344 23.453125 167.066406 25.367188 169.425781 25.367188 C 171.78125 25.367188 173.695312 23.457031 173.695312 21.09375 Z M 57.609375 8.066406 L 42.613281 8.066406 L 42.613281 11.558594 L 48.164062 11.558594 L 48.164062 28.703125 L 52.058594 28.703125 L 52.058594 11.558594 L 57.613281 11.558594 L 57.613281 8.066406 Z M 133.460938 24.535156 L 129.984375 13.484375 L 125.875 13.484375 L 131.09375 28.703125 L 135.796875 28.703125 L 141.046875 13.484375 L 136.941406 13.484375 Z M 183.011719 16.042969 L 183.011719 13.484375 L 179.09375 13.484375 L 179.09375 28.703125 L 183.011719 28.703125 L 183.011719 19.578125 C 183.011719 17.925781 184.070312 17.113281 185.722656 17.113281 L 187.867188 17.113281 L 187.867188 13.484375 L 186.035156 13.484375 C 184.601562 13.484375 183.355469 14.234375 183.011719 16.042969 Z M 183.011719 16.042969 "/>
<path style=" stroke:none;fill-rule:nonzero;fill:rgb(20.392157%,87.843137%,63.137255%);fill-opacity:1;" d="M 39.992188 20.015625 C 39.992188 31.066406 31.039062 40.027344 19.996094 40.027344 C 8.953125 40.027344 0 31.066406 0 20.015625 C 0 8.960938 8.953125 0 19.996094 0 C 31.039062 0 39.992188 8.960938 39.992188 20.015625 Z M 39.992188 20.015625 "/>
<path style=" stroke:none;fill-rule:nonzero;fill:rgb(0%,0%,0%);fill-opacity:1;" d="M 32.347656 16.109375 L 34.761719 13.480469 L 29.410156 13.480469 C 26.730469 11.652344 23.496094 10.582031 19.996094 10.582031 C 16.503906 10.582031 13.277344 11.652344 10.601562 13.480469 L 5.238281 13.480469 L 7.648438 16.109375 C 6.171875 17.460938 5.242188 19.40625 5.242188 21.566406 C 5.242188 25.640625 8.546875 28.949219 12.621094 28.949219 C 14.554688 28.949219 16.316406 28.199219 17.632812 26.980469 L 19.996094 29.554688 L 22.359375 26.980469 C 23.675781 28.203125 25.4375 28.949219 27.371094 28.949219 C 31.445312 28.949219 34.75 25.640625 34.75 21.566406 C 34.753906 19.402344 33.828125 17.457031 32.347656 16.109375 Z M 12.621094 26.5625 C 9.863281 26.5625 7.628906 24.324219 7.628906 21.566406 C 7.628906 18.804688 9.863281 16.570312 12.621094 16.570312 C 15.378906 16.570312 17.613281 18.804688 17.613281 21.566406 C 17.613281 24.324219 15.378906 26.5625 12.621094 26.5625 Z M 20 21.421875 C 20 18.132812 17.609375 15.3125 14.457031 14.105469 C 16.164062 13.390625 18.03125 12.996094 19.996094 12.996094 C 21.960938 12.996094 23.832031 13.390625 25.539062 14.105469 C 22.386719 15.3125 20 18.132812 20 21.421875 Z M 27.375 26.5625 C 24.617188 26.5625 22.382812 24.324219 22.382812 21.566406 C 22.382812 18.804688 24.617188 16.570312 27.375 16.570312 C 30.132812 16.570312 32.367188 18.804688 32.367188 21.566406 C 32.367188 24.324219 30.132812 26.5625 27.375 26.5625 Z M 27.375 18.945312 C 25.929688 18.945312 24.757812 20.117188 24.757812 21.5625 C 24.757812 23.011719 25.929688 24.183594 27.375 24.183594 C 28.820312 24.183594 29.992188 23.011719 29.992188 21.5625 C 29.992188 20.117188 28.820312 18.945312 27.375 18.945312 Z M 15.238281 21.566406 C 15.238281 23.011719 14.066406 24.183594 12.621094 24.183594 C 11.175781 24.183594 10.003906 23.011719 10.003906 21.566406 C 10.003906 20.117188 11.175781 18.945312 12.621094 18.945312 C 14.066406 18.945312 15.238281 20.117188 15.238281 21.566406 Z M 15.238281 21.566406 "/>
</g>
</svg>
