<?xml version="1.0" encoding="UTF-8"?>
<svg xmlns="http://www.w3.org/2000/svg" xmlns:xlink="http://www.w3.org/1999/xlink" width="190pt" height="60pt" viewBox="0 0 190 60" version="1.1">
<defs>
<linearGradient id="linear0" gradientUnits="userSpaceOnUse" x1="0" y1="0" x2="1" y2="0" gradientTransform="matrix(-3.528832,-137.887477,137.887477,-3.528832,43.672063,39.611202)">
<stop offset="0" style="stop-color:rgb(3.921569%,34.901961%,65.490196%);stop-opacity:1;"/>
<stop offset="1" style="stop-color:rgb(20.392157%,58.039216%,95.294118%);stop-opacity:1;"/>
</linearGradient>
</defs>
<g id="surface1">
<path style=" stroke:none;fill-rule:nonzero;fill:rgb(84.313725%,9.411765%,34.901961%);fill-opacity:1;" d="M 142.761719 38.851562 C 143.480469 39.074219 144.125 39.480469 144.632812 40.03125 C 145.152344 40.589844 145.410156 41.320312 145.410156 42.222656 C 145.410156 42.960938 145.203125 43.640625 144.789062 44.257812 C 144.355469 44.886719 143.765625 45.390625 143.078125 45.71875 C 142.355469 46.078125 141.542969 46.257812 140.640625 46.257812 C 139.664062 46.261719 138.699219 46.074219 137.792969 45.710938 C 136.886719 45.347656 136.285156 44.859375 135.988281 44.257812 C 135.96875 44.09375 135.957031 43.925781 135.953125 43.761719 C 135.953125 43.453125 136.046875 43.234375 136.226562 43.109375 C 136.355469 43.027344 136.503906 42.980469 136.65625 42.976562 C 136.917969 42.976562 137.144531 43.105469 137.339844 43.367188 C 137.648438 43.753906 138.097656 44.074219 138.691406 44.324219 C 139.285156 44.578125 139.921875 44.703125 140.605469 44.703125 C 141.199219 44.703125 141.730469 44.59375 142.195312 44.375 C 142.664062 44.160156 143.03125 43.855469 143.300781 43.460938 C 143.566406 43.070312 143.703125 42.621094 143.703125 42.117188 C 143.703125 41.433594 143.460938 40.878906 142.984375 40.453125 C 142.503906 40.023438 141.882812 39.808594 141.117188 39.808594 L 139.988281 39.808594 C 139.789062 39.816406 139.597656 39.738281 139.460938 39.597656 C 139.320312 39.445312 139.246094 39.246094 139.253906 39.042969 C 139.253906 38.800781 139.324219 38.609375 139.460938 38.457031 C 139.597656 38.3125 139.789062 38.230469 139.988281 38.234375 L 140.863281 38.234375 C 141.476562 38.234375 141.988281 38.039062 142.390625 37.644531 C 142.796875 37.253906 143 36.742188 143 36.117188 C 143 35.453125 142.769531 34.957031 142.308594 34.621094 C 141.847656 34.285156 141.222656 34.113281 140.433594 34.113281 C 139.25 34.113281 138.300781 34.539062 137.597656 35.382812 C 137.308594 35.734375 137.039062 35.910156 136.773438 35.910156 C 136.492188 35.898438 136.242188 35.738281 136.109375 35.492188 C 136.039062 35.375 136.003906 35.242188 136.003906 35.109375 C 136.003906 34.980469 136.050781 34.84375 136.140625 34.695312 C 136.601562 34.042969 137.210938 33.503906 137.921875 33.132812 C 138.640625 32.75 139.476562 32.558594 140.433594 32.558594 C 141.257812 32.558594 141.992188 32.707031 142.640625 33.003906 C 143.292969 33.300781 143.796875 33.707031 144.164062 34.226562 C 144.527344 34.746094 144.710938 35.316406 144.710938 35.945312 C 144.710938 36.605469 144.523438 37.1875 144.144531 37.691406 C 143.78125 38.179688 143.308594 38.578125 142.761719 38.851562 Z M 107.648438 32.832031 C 107.96875 32.980469 108.128906 33.191406 108.128906 33.464844 C 108.125 33.625 108.082031 33.785156 108.007812 33.925781 L 103.304688 43.589844 C 102.894531 44.433594 102.40625 45.085938 101.839844 45.546875 C 101.277344 46.011719 100.671875 46.242188 100.019531 46.242188 C 99.496094 46.242188 98.992188 46.085938 98.515625 45.777344 C 98.382812 45.703125 98.273438 45.59375 98.199219 45.460938 C 98.128906 45.339844 98.089844 45.203125 98.085938 45.0625 C 98.085938 44.921875 98.132812 44.78125 98.226562 44.632812 C 98.363281 44.386719 98.628906 44.242188 98.910156 44.257812 C 99.101562 44.257812 99.289062 44.308594 99.472656 44.410156 C 99.636719 44.507812 99.828125 44.5625 100.019531 44.566406 C 100.328125 44.566406 100.644531 44.421875 100.96875 44.128906 C 101.296875 43.835938 101.582031 43.429688 101.832031 42.90625 L 102.003906 42.546875 L 96.804688 34.011719 C 96.714844 33.875 96.667969 33.714844 96.667969 33.550781 C 96.667969 33.277344 96.824219 33.054688 97.128906 32.882812 C 97.273438 32.792969 97.4375 32.746094 97.609375 32.746094 C 97.882812 32.746094 98.105469 32.894531 98.277344 33.191406 L 102.757812 41.007812 L 106.535156 33.261719 C 106.707031 32.90625 106.9375 32.730469 107.222656 32.730469 C 107.359375 32.730469 107.5 32.765625 107.648438 32.832031 Z M 90.21875 34.371094 L 90.21875 45.199219 C 90.21875 45.449219 90.136719 45.660156 89.964844 45.828125 C 89.796875 46 89.570312 46.09375 89.332031 46.085938 C 89.09375 46.09375 88.863281 46 88.699219 45.828125 C 88.527344 45.664062 88.4375 45.433594 88.441406 45.199219 L 88.441406 34.371094 L 84.746094 34.371094 C 84.527344 34.378906 84.3125 34.296875 84.15625 34.140625 C 84.003906 33.984375 83.917969 33.769531 83.925781 33.550781 C 83.925781 33.3125 84.003906 33.113281 84.15625 32.960938 C 84.3125 32.804688 84.527344 32.722656 84.746094 32.730469 L 93.898438 32.730469 C 94.117188 32.722656 94.332031 32.804688 94.488281 32.960938 C 94.640625 33.117188 94.726562 33.332031 94.71875 33.550781 C 94.726562 33.769531 94.640625 33.984375 94.488281 34.140625 C 94.332031 34.296875 94.117188 34.378906 93.898438 34.371094 Z M 112.011719 41.453125 L 112.011719 45.199219 C 112.015625 45.433594 111.925781 45.660156 111.761719 45.828125 C 111.59375 46.003906 111.359375 46.097656 111.121094 46.085938 C 110.882812 46.09375 110.652344 46 110.488281 45.828125 C 110.316406 45.664062 110.226562 45.433594 110.230469 45.199219 L 110.230469 33.617188 C 110.222656 33.378906 110.316406 33.144531 110.488281 32.976562 C 110.65625 32.8125 110.882812 32.722656 111.121094 32.730469 L 114.542969 32.730469 C 115.386719 32.730469 116.140625 32.917969 116.808594 33.292969 C 117.472656 33.671875 117.992188 34.195312 118.363281 34.867188 C 118.734375 35.539062 118.917969 36.304688 118.917969 37.160156 C 118.917969 37.992188 118.734375 38.734375 118.363281 39.382812 C 117.992188 40.03125 117.472656 40.539062 116.808594 40.90625 C 116.140625 41.269531 115.386719 41.453125 114.542969 41.453125 Z M 166.980469 43.144531 L 166.003906 45.539062 C 165.929688 45.703125 165.8125 45.84375 165.660156 45.941406 C 165.519531 46.035156 165.351562 46.085938 165.183594 46.085938 C 164.945312 46.09375 164.71875 45.996094 164.558594 45.824219 C 164.398438 45.65625 164.308594 45.429688 164.308594 45.199219 C 164.308594 45.082031 164.339844 44.953125 164.394531 44.804688 L 169.203125 33.328125 C 169.371094 32.929688 169.652344 32.730469 170.039062 32.730469 C 170.449219 32.730469 170.730469 32.929688 170.878906 33.328125 L 175.703125 44.839844 C 175.753906 44.957031 175.78125 45.085938 175.785156 45.214844 C 175.789062 45.445312 175.695312 45.667969 175.53125 45.828125 C 175.363281 46 175.136719 46.09375 174.898438 46.085938 C 174.722656 46.085938 174.554688 46.035156 174.410156 45.941406 C 174.257812 45.847656 174.140625 45.707031 174.078125 45.539062 L 173.117188 43.144531 Z M 131.730469 33.054688 C 131.90625 32.859375 132.152344 32.742188 132.414062 32.730469 C 132.675781 32.730469 132.890625 32.8125 133.054688 32.976562 C 133.222656 33.148438 133.3125 33.378906 133.300781 33.617188 L 133.300781 45.199219 C 133.300781 45.449219 133.21875 45.660156 133.054688 45.828125 C 132.886719 46.003906 132.652344 46.097656 132.414062 46.085938 C 132.175781 46.09375 131.945312 46 131.78125 45.828125 C 131.609375 45.664062 131.519531 45.433594 131.523438 45.199219 L 131.523438 35.515625 L 123.347656 45.777344 C 123.261719 45.875 123.160156 45.949219 123.042969 46 C 122.921875 46.058594 122.796875 46.085938 122.664062 46.085938 C 122.417969 46.09375 122.183594 46 122.007812 45.828125 C 121.832031 45.667969 121.734375 45.4375 121.742188 45.199219 L 121.742188 33.617188 C 121.742188 33.367188 121.828125 33.15625 122.007812 32.984375 C 122.183594 32.816406 122.417969 32.722656 122.664062 32.730469 C 122.914062 32.730469 123.121094 32.8125 123.28125 32.976562 C 123.441406 33.148438 123.53125 33.382812 123.519531 33.617188 L 123.519531 43.316406 Z M 160.546875 32.730469 C 160.796875 32.730469 161.011719 32.816406 161.179688 32.984375 C 161.351562 33.152344 161.441406 33.382812 161.4375 33.617188 L 161.4375 45.199219 C 161.4375 45.449219 161.347656 45.660156 161.171875 45.828125 C 161.007812 45.996094 160.78125 46.089844 160.546875 46.085938 C 160.308594 46.09375 160.082031 46 159.914062 45.828125 C 159.746094 45.664062 159.652344 45.433594 159.660156 45.199219 L 159.660156 36.699219 L 155.519531 45.128906 C 155.328125 45.425781 155.070312 45.574219 154.75 45.574219 C 154.375 45.574219 154.101562 45.398438 153.929688 45.042969 L 149.839844 36.851562 L 149.839844 45.199219 C 149.839844 45.449219 149.757812 45.660156 149.585938 45.828125 C 149.417969 46 149.191406 46.09375 148.953125 46.085938 C 148.714844 46.09375 148.484375 46 148.320312 45.828125 C 148.148438 45.664062 148.058594 45.433594 148.0625 45.199219 L 148.0625 33.617188 C 148.0625 33.367188 148.148438 33.15625 148.320312 32.984375 C 148.484375 32.816406 148.714844 32.722656 148.953125 32.730469 C 149.292969 32.730469 149.554688 32.890625 149.738281 33.207031 L 154.820312 43.386719 L 159.761719 33.207031 C 159.945312 32.890625 160.207031 32.730469 160.546875 32.730469 Z M 172.519531 41.675781 L 170.074219 35.585938 L 167.578125 41.675781 Z M 114.542969 34.371094 L 112.011719 34.371094 L 112.011719 39.808594 L 114.542969 39.808594 C 115.316406 39.808594 115.953125 39.5625 116.457031 39.066406 C 116.957031 38.570312 117.207031 37.933594 117.207031 37.160156 C 117.207031 36.351562 116.957031 35.683594 116.457031 35.160156 C 115.953125 34.632812 115.316406 34.371094 114.542969 34.371094 Z M 114.542969 34.371094 "/>
<path style=" stroke:none;fill-rule:nonzero;fill:rgb(3.529412%,34.509804%,64.705882%);fill-opacity:1;" d="M 158.65625 13.085938 C 159.523438 13.085938 160.273438 13.199219 160.90625 13.425781 C 161.539062 13.65625 162.179688 14.03125 162.828125 14.554688 C 162.96875 14.660156 163.058594 14.765625 163.105469 14.871094 C 163.152344 14.996094 163.175781 15.125 163.171875 15.257812 C 163.179688 15.472656 163.085938 15.679688 162.921875 15.820312 C 162.769531 15.964844 162.5625 16.046875 162.351562 16.042969 C 162.132812 16.042969 161.917969 15.964844 161.753906 15.820312 C 161.285156 15.421875 160.828125 15.136719 160.386719 14.957031 C 159.941406 14.78125 159.363281 14.691406 158.65625 14.691406 C 157.789062 14.6875 156.9375 14.929688 156.203125 15.394531 C 155.453125 15.863281 154.839844 16.519531 154.421875 17.300781 C 153.984375 18.105469 153.757812 19.007812 153.765625 19.925781 C 153.753906 20.847656 153.980469 21.753906 154.421875 22.558594 C 154.84375 23.335938 155.453125 23.992188 156.203125 24.457031 C 156.9375 24.921875 157.789062 25.167969 158.65625 25.160156 C 159.75 25.160156 160.800781 24.785156 161.804688 24.03125 C 161.964844 23.90625 162.164062 23.832031 162.367188 23.828125 C 162.585938 23.828125 162.765625 23.902344 162.90625 24.054688 C 163.054688 24.222656 163.132812 24.441406 163.121094 24.664062 C 163.121094 24.902344 163.03125 25.113281 162.847656 25.296875 C 161.617188 26.289062 160.21875 26.785156 158.65625 26.785156 C 157.480469 26.796875 156.324219 26.484375 155.3125 25.878906 C 154.308594 25.28125 153.488281 24.425781 152.925781 23.398438 C 152.34375 22.335938 152.042969 21.140625 152.054688 19.925781 C 152.054688 18.671875 152.347656 17.523438 152.925781 16.480469 C 153.488281 15.457031 154.3125 14.601562 155.3125 14 C 156.320312 13.390625 157.480469 13.074219 158.65625 13.085938 Z M 101.824219 13.085938 C 103.136719 13.085938 104.304688 13.375 105.339844 13.957031 C 106.355469 14.523438 107.191406 15.367188 107.75 16.386719 C 108.328125 17.421875 108.613281 18.605469 108.613281 19.925781 C 108.613281 21.25 108.328125 22.433594 107.75 23.476562 C 107.195312 24.496094 106.363281 25.34375 105.347656 25.914062 C 104.320312 26.492188 103.144531 26.785156 101.824219 26.785156 C 100.5 26.785156 99.324219 26.492188 98.292969 25.914062 C 97.273438 25.347656 96.441406 24.5 95.890625 23.476562 C 95.320312 22.433594 95.035156 21.25 95.035156 19.925781 C 95.035156 18.605469 95.320312 17.421875 95.890625 16.386719 C 96.441406 15.363281 97.277344 14.523438 98.292969 13.957031 C 99.324219 13.375 100.5 13.085938 101.824219 13.085938 Z M 143.433594 13.085938 C 144.746094 13.085938 145.917969 13.375 146.949219 13.957031 C 147.96875 14.523438 148.804688 15.367188 149.359375 16.386719 C 149.9375 17.421875 150.226562 18.605469 150.226562 19.925781 C 150.226562 21.25 149.9375 22.433594 149.359375 23.476562 C 148.804688 24.496094 147.972656 25.34375 146.957031 25.914062 C 145.933594 26.492188 144.757812 26.785156 143.433594 26.785156 C 142.113281 26.785156 140.933594 26.492188 139.902344 25.914062 C 138.886719 25.347656 138.050781 24.5 137.5 23.476562 C 136.929688 22.433594 136.644531 21.25 136.644531 19.925781 C 136.644531 18.605469 136.929688 17.421875 137.5 16.386719 C 138.054688 15.363281 138.886719 14.523438 139.902344 13.957031 C 140.933594 13.375 142.113281 13.085938 143.433594 13.085938 Z M 127.222656 20.628906 L 127.222656 25.722656 C 127.222656 25.976562 127.140625 26.1875 126.972656 26.359375 C 126.804688 26.53125 126.574219 26.621094 126.332031 26.613281 C 126.09375 26.621094 125.867188 26.527344 125.699219 26.359375 C 125.53125 26.191406 125.4375 25.960938 125.441406 25.722656 L 125.441406 14.144531 C 125.441406 13.882812 125.527344 13.671875 125.699219 13.503906 C 125.867188 13.339844 126.097656 13.25 126.332031 13.257812 C 126.59375 13.257812 126.808594 13.339844 126.972656 13.503906 C 127.140625 13.675781 127.230469 13.90625 127.222656 14.144531 L 127.222656 19.054688 L 128.984375 19.054688 L 133.582031 13.546875 C 133.734375 13.351562 133.96875 13.238281 134.214844 13.238281 C 134.46875 13.238281 134.671875 13.328125 134.832031 13.511719 C 134.976562 13.660156 135.054688 13.855469 135.054688 14.058594 C 135.046875 14.28125 134.964844 14.492188 134.816406 14.660156 L 130.488281 19.6875 L 135.261719 25.230469 C 135.421875 25.386719 135.511719 25.601562 135.515625 25.828125 C 135.511719 26.042969 135.417969 26.246094 135.261719 26.390625 C 135.097656 26.550781 134.875 26.640625 134.644531 26.632812 C 134.511719 26.632812 134.382812 26.605469 134.261719 26.554688 C 134.144531 26.507812 134.042969 26.433594 133.960938 26.339844 L 129.050781 20.628906 Z M 90.039062 14.898438 L 90.039062 25.722656 C 90.039062 25.976562 89.953125 26.1875 89.785156 26.359375 C 89.617188 26.527344 89.386719 26.621094 89.148438 26.613281 C 88.914062 26.621094 88.683594 26.527344 88.515625 26.359375 C 88.347656 26.191406 88.253906 25.960938 88.261719 25.722656 L 88.261719 14.898438 L 84.566406 14.898438 C 84.347656 14.90625 84.132812 14.820312 83.976562 14.667969 C 83.820312 14.511719 83.738281 14.296875 83.746094 14.078125 C 83.746094 13.835938 83.824219 13.640625 83.976562 13.488281 C 84.132812 13.332031 84.347656 13.25 84.566406 13.257812 L 93.714844 13.257812 C 93.957031 13.257812 94.152344 13.332031 94.308594 13.488281 C 94.460938 13.640625 94.539062 13.835938 94.539062 14.078125 C 94.546875 14.296875 94.460938 14.511719 94.308594 14.667969 C 94.148438 14.820312 93.9375 14.90625 93.714844 14.898438 Z M 170.800781 14.898438 L 170.800781 25.722656 C 170.800781 25.976562 170.714844 26.1875 170.542969 26.359375 C 170.378906 26.527344 170.148438 26.621094 169.910156 26.613281 C 169.671875 26.621094 169.445312 26.527344 169.277344 26.359375 C 169.109375 26.191406 169.015625 25.960938 169.019531 25.722656 L 169.019531 14.898438 L 165.328125 14.898438 C 165.109375 14.90625 164.894531 14.824219 164.738281 14.667969 C 164.582031 14.511719 164.5 14.296875 164.507812 14.078125 C 164.507812 13.835938 164.582031 13.640625 164.738281 13.488281 C 164.894531 13.332031 165.105469 13.25 165.328125 13.257812 L 174.476562 13.257812 C 174.699219 13.25 174.910156 13.332031 175.066406 13.488281 C 175.222656 13.640625 175.296875 13.835938 175.296875 14.078125 C 175.304688 14.296875 175.222656 14.511719 175.066406 14.667969 C 174.910156 14.820312 174.699219 14.90625 174.476562 14.898438 Z M 113.179688 20.628906 L 113.179688 25.722656 C 113.179688 25.976562 113.097656 26.1875 112.933594 26.359375 C 112.765625 26.53125 112.53125 26.621094 112.292969 26.613281 C 112.054688 26.621094 111.824219 26.527344 111.65625 26.359375 C 111.488281 26.191406 111.394531 25.960938 111.402344 25.722656 L 111.402344 14.144531 C 111.394531 13.90625 111.484375 13.675781 111.652344 13.507812 C 111.820312 13.339844 112.054688 13.246094 112.292969 13.257812 C 112.550781 13.257812 112.765625 13.339844 112.933594 13.503906 C 113.097656 13.675781 113.1875 13.90625 113.179688 14.144531 L 113.179688 19.054688 L 121.117188 19.054688 L 121.117188 14.144531 C 121.117188 13.882812 121.203125 13.671875 121.371094 13.503906 C 121.542969 13.339844 121.769531 13.25 122.003906 13.257812 C 122.238281 13.25 122.464844 13.339844 122.628906 13.503906 C 122.796875 13.675781 122.886719 13.90625 122.878906 14.144531 L 122.878906 25.722656 C 122.878906 25.984375 122.796875 26.199219 122.628906 26.367188 C 122.464844 26.53125 122.238281 26.621094 122.003906 26.613281 C 121.769531 26.621094 121.539062 26.527344 121.371094 26.359375 C 121.203125 26.191406 121.109375 25.960938 121.117188 25.722656 L 121.117188 20.628906 Z M 187.253906 13.582031 C 187.429688 13.386719 187.675781 13.269531 187.9375 13.257812 C 188.199219 13.257812 188.414062 13.339844 188.578125 13.503906 C 188.746094 13.675781 188.835938 13.90625 188.828125 14.144531 L 188.828125 25.722656 C 188.828125 25.976562 188.742188 26.1875 188.578125 26.359375 C 188.410156 26.53125 188.179688 26.621094 187.9375 26.613281 C 187.699219 26.621094 187.472656 26.527344 187.304688 26.359375 C 187.136719 26.191406 187.042969 25.960938 187.046875 25.722656 L 187.046875 16.042969 L 178.871094 26.304688 C 178.785156 26.402344 178.683594 26.476562 178.566406 26.527344 C 178.445312 26.582031 178.320312 26.613281 178.1875 26.613281 C 177.945312 26.621094 177.707031 26.527344 177.53125 26.359375 C 177.355469 26.191406 177.261719 25.960938 177.265625 25.722656 L 177.265625 14.144531 C 177.265625 13.894531 177.355469 13.683594 177.53125 13.511719 C 177.707031 13.34375 177.945312 13.25 178.1875 13.257812 C 178.441406 13.257812 178.644531 13.339844 178.804688 13.503906 C 178.964844 13.675781 179.050781 13.90625 179.042969 14.144531 L 179.042969 23.84375 Z M 101.824219 14.691406 C 100.84375 14.691406 99.96875 14.921875 99.199219 15.378906 C 98.433594 15.828125 97.808594 16.476562 97.394531 17.257812 C 96.957031 18.078125 96.730469 18.996094 96.742188 19.925781 C 96.742188 20.90625 96.960938 21.796875 97.394531 22.59375 C 97.828125 23.390625 98.429688 24.023438 99.207031 24.484375 C 99.984375 24.945312 100.855469 25.175781 101.824219 25.175781 C 102.792969 25.175781 103.664062 24.945312 104.441406 24.484375 C 105.207031 24.03125 105.832031 23.378906 106.253906 22.59375 C 106.691406 21.773438 106.914062 20.855469 106.902344 19.925781 C 106.902344 18.945312 106.6875 18.054688 106.253906 17.257812 C 105.835938 16.476562 105.210938 15.828125 104.449219 15.378906 C 103.679688 14.921875 102.804688 14.691406 101.824219 14.691406 Z M 143.433594 14.691406 C 142.453125 14.691406 141.578125 14.921875 140.808594 15.378906 C 140.046875 15.824219 139.421875 16.476562 139.007812 17.257812 C 138.574219 18.054688 138.355469 18.945312 138.355469 19.925781 C 138.355469 20.90625 138.574219 21.796875 139.007812 22.59375 C 139.425781 23.378906 140.054688 24.03125 140.820312 24.484375 C 141.59375 24.945312 142.464844 25.175781 143.433594 25.175781 C 144.40625 25.175781 145.277344 24.945312 146.050781 24.484375 C 146.816406 24.03125 147.445312 23.378906 147.863281 22.59375 C 148.296875 21.796875 148.515625 20.90625 148.515625 19.925781 C 148.515625 18.945312 148.296875 18.054688 147.863281 17.257812 C 147.449219 16.476562 146.824219 15.828125 146.0625 15.378906 C 145.292969 14.921875 144.417969 14.691406 143.433594 14.691406 Z M 143.433594 14.691406 "/>
<path style=" stroke:none;fill-rule:evenodd;fill:url(#linear0);" d="M 0.761719 40.082031 C 0.800781 40.160156 0.84375 40.234375 0.886719 40.3125 C 1.585938 41.53125 2.558594 42.621094 4.78125 43.289062 C 13.03125 45.769531 21.300781 48.613281 29.507812 51.492188 C 31.855469 52.316406 34.277344 52.925781 36.71875 52.609375 C 37.695312 52.480469 38.9375 52.078125 38.9375 52.078125 C 38.9375 52.078125 38.882812 52.101562 38.949219 52.074219 C 41.363281 51.175781 43.816406 50.386719 46.253906 49.554688 C 47.328125 49.191406 48.5 48.796875 48.5 48.796875 C 50.6875 48.375 52.589844 49.453125 53.484375 51.152344 C 53.765625 51.695312 54.039062 52.351562 54.230469 53.042969 C 48.859375 54.835938 43.503906 56.675781 38.167969 58.558594 C 37.246094 58.882812 36.179688 59.039062 35.09375 59.023438 C 34.011719 59.039062 32.945312 58.882812 32.023438 58.558594 C 25.890625 56.398438 11.691406 51.445312 2.734375 48.878906 C 1.363281 48.195312 -0.597656 46.699219 0.175781 42.785156 C 0.339844 41.953125 0.539062 41.046875 0.761719 40.082031 Z M 38.472656 20.726562 C 39.582031 22.734375 41.699219 23.878906 43.78125 23.851562 C 44.675781 23.847656 45.558594 23.65625 46.375 23.292969 C 46.445312 23.554688 46.566406 23.902344 46.742188 24.15625 C 48.382812 26.515625 51.222656 27.96875 54.074219 28.601562 C 57.960938 29.460938 61.960938 28.003906 64.910156 25.328125 C 66.023438 28.253906 67.015625 31.222656 67.882812 34.230469 C 68.113281 35.949219 68.488281 37.90625 67.609375 39.554688 C 66.589844 41.464844 63.882812 42.042969 63.882812 42.042969 C 61.707031 42.679688 59.703125 43.667969 58.613281 45.5 C 57.519531 47.328125 57.492188 49.683594 58.328125 51.695312 C 57.558594 51.945312 56.785156 52.199219 56.007812 52.453125 C 55.628906 50.929688 54.921875 49.480469 53.78125 48.386719 C 52.875 47.515625 51.707031 46.964844 50.457031 46.8125 C 49.289062 46.675781 47.902344 46.988281 47.902344 46.988281 C 45.40625 47.8125 42.921875 48.675781 40.441406 49.53125 C 39.417969 49.886719 38.070312 50.371094 38.070312 50.371094 C 35.890625 51.0625 33.519531 50.882812 31.363281 50.125 C 22.621094 47.046875 13.789062 44.042969 4.863281 41.324219 C 3.144531 40.78125 2.066406 39.003906 1.84375 37.183594 C 1.796875 36.824219 1.84375 36.414062 1.792969 36.050781 C 3.601562 29.46875 6.328125 21.691406 9.277344 16.71875 C 11.035156 13.761719 12.921875 11.492188 14.820312 9.753906 C 14.386719 9.699219 13.964844 9.582031 13.566406 9.414062 C 12.800781 9.089844 12.140625 8.554688 11.671875 7.871094 C 11.183594 7.175781 10.890625 6.359375 10.789062 5.417969 C 10.683594 4.480469 10.796875 3.621094 11.117188 2.839844 C 11.433594 2.070312 11.960938 1.410156 12.636719 0.929688 C 13.324219 0.4375 14.136719 0.140625 15.074219 0.0351562 C 16.003906 -0.0664062 16.859375 0.046875 17.636719 0.382812 C 18.402344 0.703125 19.058594 1.238281 19.535156 1.917969 C 20.023438 2.609375 20.320312 3.421875 20.425781 4.363281 C 20.488281 4.953125 20.46875 5.511719 20.363281 6.042969 C 27.886719 2.628906 35.074219 4.925781 35.09375 4.933594 C 35.09375 4.933594 42.296875 2.621094 49.828125 6.042969 C 49.722656 5.488281 49.699219 4.921875 49.765625 4.363281 C 49.871094 3.421875 50.167969 2.609375 50.65625 1.917969 C 51.132812 1.238281 51.789062 0.703125 52.554688 0.382812 C 53.332031 0.046875 54.1875 -0.0664062 55.117188 0.0351562 C 56.054688 0.140625 56.867188 0.4375 57.554688 0.929688 C 58.242188 1.421875 58.746094 2.058594 59.070312 2.839844 C 59.394531 3.621094 59.507812 4.480469 59.402344 5.417969 C 59.300781 6.359375 59.007812 7.175781 58.519531 7.871094 C 58.050781 8.554688 57.390625 9.089844 56.625 9.414062 C 56.226562 9.582031 55.804688 9.699219 55.371094 9.753906 C 57.269531 11.492188 59.15625 13.761719 60.910156 16.71875 C 62.136719 18.78125 63.320312 21.320312 64.417969 24.0625 C 63.070312 25.414062 61.480469 26.539062 59.671875 27.128906 C 56.3125 28.234375 52.421875 27.292969 49.53125 25.125 C 48.703125 24.507812 47.824219 23.847656 47.558594 23.015625 C 47.523438 22.898438 47.472656 22.789062 47.40625 22.6875 C 49.210938 21.375 50.125 19.140625 49.898438 16.996094 C 49.546875 13.722656 46.804688 11.5 43.941406 11.488281 C 43.871094 11.488281 43.800781 11.488281 43.730469 11.492188 C 40.460938 11.605469 37.898438 14.082031 37.699219 17.003906 C 37.648438 17.664062 37.691406 18.324219 37.824219 18.972656 L 35.820312 16.195312 C 35.28125 15.410156 34.738281 15.351562 34.199219 16.207031 L 31.863281 19.445312 C 30.984375 22.800781 30.671875 26.238281 30.582031 29.710938 C 33.527344 30.046875 36.5 30.046875 39.445312 29.710938 C 39.367188 26.679688 39.117188 23.671875 38.472656 20.726562 Z M 38.953125 52.070312 C 39.167969 51.953125 39.007812 52.035156 38.953125 52.070312 Z M 69.417969 40.039062 C 69.648438 41.015625 69.847656 41.9375 70.015625 42.785156 C 70.789062 46.699219 68.828125 48.195312 67.457031 48.878906 C 65.007812 49.585938 62.570312 50.332031 60.144531 51.109375 C 60.0625 50.933594 59.984375 50.753906 59.917969 50.570312 C 59.222656 48.644531 59.839844 46.410156 61.394531 45.167969 C 62.910156 43.960938 65.117188 43.949219 66.871094 42.933594 C 68.046875 42.253906 68.882812 41.222656 69.417969 40.039062 Z M 34.605469 22.257812 C 35.277344 22.171875 35.957031 22.261719 36.582031 22.523438 C 37.183594 22.78125 37.671875 23.175781 38.050781 23.707031 C 38.425781 24.242188 38.65625 24.871094 38.734375 25.597656 C 38.820312 26.273438 38.730469 26.960938 38.476562 27.59375 C 38.234375 28.1875 37.828125 28.699219 37.304688 29.070312 C 36.777344 29.453125 36.152344 29.679688 35.425781 29.761719 C 34.703125 29.839844 34.042969 29.75 33.441406 29.496094 C 32.851562 29.246094 32.34375 28.832031 31.980469 28.304688 C 31.59375 27.742188 31.359375 27.089844 31.296875 26.410156 C 31.21875 25.6875 31.300781 25.023438 31.550781 24.421875 C 31.800781 23.820312 32.191406 23.328125 32.722656 22.945312 C 33.253906 22.566406 33.882812 22.335938 34.605469 22.257812 Z M 43.828125 13.613281 C 42.765625 13.632812 41.695312 14.027344 40.964844 14.785156 C 39.148438 16.664062 39.777344 20.441406 42.367188 21.464844 C 44.414062 22.273438 47.0625 21.003906 47.609375 18.792969 C 48.191406 16.453125 46.597656 13.703125 43.996094 13.617188 C 43.941406 13.613281 43.886719 13.613281 43.828125 13.613281 Z M 43.039062 15.980469 C 41.480469 15.804688 40.15625 16.113281 40.089844 16.667969 C 40.019531 17.222656 41.230469 17.816406 42.789062 17.992188 C 44.347656 18.171875 45.671875 17.859375 45.738281 17.304688 C 45.808594 16.75 44.597656 16.15625 43.039062 15.980469 Z M 26.988281 15.664062 C 28.546875 15.484375 29.867188 15.796875 29.9375 16.351562 C 30.007812 16.90625 28.796875 17.5 27.238281 17.675781 C 25.679688 17.851562 24.355469 17.542969 24.289062 16.988281 C 24.21875 16.429688 25.429688 15.839844 26.988281 15.664062 Z M 26.988281 15.664062 "/>
</g>
</svg>
